# xmcd CD database file
#
# Track frame offsets:
#	150
#	22587
#	45950
#
# Disc length: 908 seconds
#
# Revision: 1
# Processed by: cddbd v1.5PL3 Copyright (c) Steve Scherf et al.
# Submitted via: CDex 1.50
#
DISCID=0f038a03
DTITLE=THE CHECKERS - ミセス マーメイド
DYEAR=1991
DGENRE=JPop
TTITLE0=ミセス マーメイド
TTITLE1=誰もいないweekend
TTITLE2=ミセス マーメイド (オリジナル カラオケ)
EXTD=YEAR: 1991
EXTT0=
EXTT1=
EXTT2=
PLAYORDER=
